<svg width="220" height="220" version="1.1" viewBox="0 0 384 384" xmlns="http://www.w3.org/2000/svg"><defs><filter id="a" x="-.05282" y="-.043987" width="1.1056" height="1.088" style="color-interpolation-filters:sRGB"><feGaussianBlur stdDeviation="6.2570508"/></filter><linearGradient id="b" x1="187.95" x2="187.95" y1="330.3" y2="118.97" gradientTransform="matrix(.97765 0 0 .97765 4.2818 3.9535)" gradientUnits="userSpaceOnUse"><stop stop-color="#80c6ed" offset="0"/><stop stop-color="#fff" offset="1"/></linearGradient><filter id="d" x="-.048128" y="-.086344" width="1.0963" height="1.1727" style="color-interpolation-filters:sRGB"><feGaussianBlur stdDeviation="5.3740209"/></filter><filter id="c" x="-.039228" y="-.06922" width="1.0785" height="1.1384" style="color-interpolation-filters:sRGB"><feGaussianBlur stdDeviation="5.7614063"/></filter><filter id="e" x="-.041846" y="-.056277" width="1.0837" height="1.1126" style="color-interpolation-filters:sRGB"><feGaussianBlur stdDeviation="5.3421572"/></filter><filter id="l" x="-.1183" y="-.18559" width="1.2366" height="1.3712" color-interpolation-filters="sRGB"><feGaussianBlur stdDeviation="1.0974128"/></filter><linearGradient id="j" x1="187.28" x2="187.28" y1="239.74" y2="104.63" gradientTransform="matrix(.20561 0 0 .20561 106.86 100.25)" gradientUnits="userSpaceOnUse"><stop stop-color="#fff" offset="0"/><stop stop-color="#4c4f5c" offset="1"/></linearGradient><radialGradient id="i" cx="146.98" cy="135.69" r="15.131" gradientTransform="matrix(.20561 0 0 .20561 106.86 100.25)" gradientUnits="userSpaceOnUse"><stop stop-color="#333" offset="0"/><stop offset="1"/></radialGradient><filter id="f" x="-.015462" y="-.10641" width="1.0309" height="1.2128" color-interpolation-filters="sRGB"><feGaussianBlur stdDeviation="2.8418682"/></filter><filter id="g" x="-.0096848" y="-.06133" width="1.0194" height="1.1227" color-interpolation-filters="sRGB"><feGaussianBlur stdDeviation="1.4318783"/></filter><filter id="h" x="-.028456" y="-.18204" width="1.0569" height="1.3641" color-interpolation-filters="sRGB"><feGaussianBlur stdDeviation="5.7271145"/></filter><filter id="C" x="-.012914" y="-.030654" width="1.0258" height="1.0613" color-interpolation-filters="sRGB"><feGaussianBlur stdDeviation=".83619907"/></filter></defs><g transform="matrix(.61338 -.14797 .14797 .61338 -17.395 31.324)"><path d="m150.75 85.032c-42.394 0.0067-77.392 29.349-77.392 66.245-2.2e-5 7e-3 -2.2e-5 0.0132 0 0.0198 0.02085 3.6707 0.52677 7.3122 1.2522 10.922-32.678 1.3185-58.862 28.225-58.862 61.221 0 33.84 27.513 61.353 61.348 61.353h229.79c33.837 0 61.348-27.514 61.348-61.353 0-33.598-27.133-60.928-60.64-61.313 1.0103-4.1813 1.7066-8.4322 1.7187-12.744 1e-5 -4e-3 1e-5 -8e-3 0-0.0112 0-30.41-24.731-55.144-55.145-55.15h-7e-3c-15.669 0.02727-30.467 6.7711-40.856 18.316-14.553-17.242-37.708-27.491-62.551-27.506h-7e-3zm-73.778 84.48c0.03315 7.5e-4 0.06592 4e-3 0.09904 5e-3 0.01013-2e-5 0.01883-2e-3 0.02865-2e-3z" color="#000000" color-rendering="auto" dominant-baseline="auto" fill-rule="evenodd" image-rendering="auto" opacity=".1" shape-rendering="auto" solid-color="#000000" style="filter:url(#c);font-feature-settings:normal;font-variant-alternates:normal;font-variant-caps:normal;font-variant-ligatures:normal;font-variant-numeric:normal;font-variant-position:normal;isolation:auto;mix-blend-mode:normal;opacity:.1311;paint-order:stroke fill markers;shape-padding:0;stroke-width:.75;text-decoration-color:#000000;text-decoration-line:none;text-decoration-style:solid;text-indent:0;text-orientation:mixed;text-transform:none;white-space:normal"/><path d="m150.76 99.206c-42.395 6e-3 -77.392 29.348-77.392 66.245-2.3e-5 7e-3 -2.3e-5 0.0135 0 0.0203 0.0207 3.6706 0.52515 7.312 1.2506 10.922-32.678 1.319-58.861 28.226-58.861 61.222 0 33.841 27.513 61.354 61.349 61.354h229.79c33.837 0 61.349-27.514 61.349-61.354 0-33.544-27.047-60.832-60.479-61.304 1.0061-4.1729 1.5456-8.4502 1.5577-12.754 1e-5 -4e-3 1e-5 -8e-3 0-0.0116 0-30.41-24.731-55.145-55.146-55.149h-6e-3c-15.669 0.0273-30.466 6.7701-40.855 18.315-14.554-17.242-37.71-27.491-62.552-27.506h-4e-3z" color="#000000" color-rendering="auto" dominant-baseline="auto" fill-opacity=".33725" fill-rule="evenodd" image-rendering="auto" opacity=".3" shape-rendering="auto" solid-color="#000000" stroke-width=".74998" style="font-feature-settings:normal;font-variant-alternates:normal;font-variant-caps:normal;font-variant-ligatures:normal;font-variant-numeric:normal;font-variant-position:normal;isolation:auto;mix-blend-mode:normal;paint-order:stroke fill markers;shape-padding:0;text-decoration-color:#000000;text-decoration-line:none;text-decoration-style:solid;text-indent:0;text-orientation:mixed;text-transform:none;white-space:normal"/><path d="m150.75 95.5c-40.695 0.0038-73.684 27.998-73.684 62.533 0.02791 4.9319 0.74098 9.8444 2.1274 14.633-0.69716-0.0478-1.3983-0.0837-2.0995-0.10757-31.83 0-57.637 25.808-57.637 57.637 0 31.834 25.808 57.641 57.637 57.641h229.79c31.83 0 57.637-25.808 57.637-57.641 0-31.83-25.808-57.637-57.637-57.637-1.3624 0-2.7209 0.0519-4.0793 0.1474 1.8365-5.3343 2.7807-10.936 2.7966-16.576 0-28.404-23.026-51.435-51.435-51.439-16.05 0.0279-31.173 7.5453-40.882 20.329-13.438-18.341-37.077-29.504-62.53-29.52z" fill="url(#a)" fill-rule="evenodd" stroke="#80c6ed" stroke-linejoin="round" stroke-opacity=".47059" stroke-width="7.4189" style="fill:url(#b);paint-order:stroke fill markers"/><path d="m146.93 113.42c-8.6664 0-9.7021 10.616-1.251 12.826 5.2117 1.3629 15.256 16.005 14.035 20.459-0.30731 1.1208 0.48226 2.0347 1.7534 2.0347 3.2024 0 19.779 27.118 18.168 29.723-1.5389 2.4902-20.486 4.5553-76.182 8.3027-22.416 1.5082-45.647 3.4073-51.624 4.2202-10.698 1.4549-10.784 1.4046-5.209-3.3999 3.1148-2.6845 9.7419-7.9386 14.72-11.675 0.89052-0.66831 1.3658-1.0554 2.1841-1.6743-2.8814 0.69704-5.692 1.5687-8.3862 2.6807 0.63475 1.5368-0.0709 1.8269-2.3159 1.0606-1.3412 0.62477-2.6665 1.274-3.9492 1.9966-0.77856 1.8057-3.347 4.5191-6.7764 6.9609-2.2352 1.5916-4.2896 2.737-6.7676 3.624-3.4845 3.6707-6.525 7.7673-8.9531 12.255 10.097-7.0664 14.655-7.7561 31.857-9.2197l22.705-1.9351-1.4912 11.829-1.4897 11.823 2.9106-11.37c3.3246-12.977 3.5356-13.048 47.045-15.822 13.449-0.85733 30.41-2.2508 37.688-3.1025 2.0269-0.23735 3.8456-0.39194 5.4199-0.45996l-6e-3 -1e-3c4.7232-0.20407 7.2677 0.34421 6.8057 1.5615-0.85058 2.2409-25.316 24.986-73.913 68.725-29.489 26.542-35.579 32.448-33.483 32.458 1.2594 5e-3 15.988-12.519 32.735-27.836 56.669-51.835 75.809-68.609 79.232-69.438 4.3549-1.0566 5.2583 1.9412 28.472 94.061 0.33169 1.3162 0.61846 2.5119 0.92285 3.7544h3.082c-3.307-12.845-6.9787-27.155-8.0186-30.913l-3.52-12.719 12.551-5.2368c45.669-19.053 42.443-18.308 54.911-12.686l11.307 5.0947-1.6611 17.78c-4.0025 42.876-3.8186 50.46 0.44531 18.176l4.6143-34.917 21.596 11.174c11.877 6.147 22.27 12.222 23.095 13.497 1.4874 2.2997 7.5391 9.027 14.502 16.551 0.59346-0.5169 1.1758-1.046 1.7476-1.5864-0.62189-0.58988-1.2366-1.234-1.8545-1.812-4.8615-4.5481-8.4177-8.6917-7.9014-9.208 0.29739-0.2974 6.4165 2.2467 14.638 5.8784 0.88539-1.0704 1.6945-2.2036 2.502-3.3369-22.225-11.512-31.009-17.735-42.898-29.849-9.2308-9.4038-16-17.879-15.045-18.834 0.95401-0.95396 19.962 1.7318 42.246 5.9648l26.222 4.9819c-0.0622-0.83078-0.16223-1.6491-0.25928-2.4697-1.7349-0.40504-2.96-0.60054-5.2266-1.1997-4.483-1.1851-19.72-4.2889-33.857-6.9038-28.957-5.356-38.726-12.002-42.091-28.622-1.0432-5.1563-2.4674-11.422-3.167-13.922-1.0457-3.7358 1.5285-4.868 14.467-6.3809 3.1897-0.37289 6.9529-0.93164 10.608-1.4707 0.20853-1.1878 0.35743-2.3845 0.48193-3.5845-0.26091 0.0465-0.35391 0.0655-0.61962 0.11279-24.889 4.4316-28.699 3.6593-28.699-5.7817 0-4.9751 1.4493-6.876 5.2295-6.876 4.8911 0 4.9686-0.52071 1.188-8.0991-2.2216-4.4533-5.2024-8.8077-6.6152-9.6812-4.0535-2.5051-13.384 1.4457-13.384 5.6675 0 2.8004-2.1863 3.3924-8.1548 2.1987-5.1925-1.0385-8.1489-0.52047-8.1489 1.4268 0 1.6812 3.361 3.0844 7.4707 3.1172 9.6086 0.0777 19.03 7.6058 20.168 16.119 0.87436 6.5418 0.18318 6.7913-35.786 12.946-50.521 8.6454-50.612 8.6212-69.101-20.678-8.4931-13.46-15.13-27.129-15.13-31.157 0-5.8449-1.2596-7.1807-6.791-7.1807zm14.94 8.502c-1.2312 0-2.4586 0.18874-3.3926 0.56543-1.868 0.75374-0.34351 1.3711 3.3926 1.3711 3.7358 0 5.2664-0.61735 3.3984-1.3711-0.93394-0.37678-2.1673-0.56543-3.3984-0.56543zm-26.786 3.5317c-4e-5 1.2e-4 -3e-3 1e-3 -3e-3 1e-3 -2.3e-4 8.2e-4 6e-3 -8.5e-4 6e-3 0zm-3e-3 1e-3c0.0147-0.0541-0.10769-0.0471-0.38379 0.0337-7.289 2.1511-47.434 18.439-51.624 20.946-0.74124 0.44351-3.6303 1.8178-5.2397 2.6572-0.30723 1.8196-0.53048 3.6616-0.64893 5.5283 1.5717 0.22551 2.6427 1.4443 4.4033 3.7998 2.4874 3.3277 3.5106 9.261 2.7773 16.134l-1.1587 10.869 2.7349-11.172c3.9703-16.202 9.4191-17.631 37.604-9.8306 12.858 3.5587 29.929 8.286 37.934 10.501 8.0061 2.2154 15.078 3.5081 15.71 2.8755 0.63271-0.63271-15.583-5.8678-36.034-11.638-33.855-9.5528-44.495-14.281-44.495-19.759 0-1.0727 9.4712-6.4825 21.053-12.028 10.131-4.8506 17.244-8.5174 17.367-8.9165zm165.96 22.14c-1.9486-0.1346-3.3208 0.38468-3.3208 1.4004 0 1.3545 2.4457 2.4653 5.4346 2.4653 0.85901 0 1.4819-0.10794 2.206-0.17725-0.0855-0.91312-0.238-1.804-0.3706-2.7026-0.62657-0.21216-1.1207-0.4386-1.8354-0.62549-0.74714-0.19538-1.4642-0.31549-2.1138-0.36035zm-169.38 1.4912c-1.4774-0.0193-3.0582 0.14343-4.3799 0.48779-2.6436 0.68886-1.1345 1.301 3.3486 1.3564 4.483 0.0555 6.6457-0.50528 4.8062-1.2495-0.91975-0.37196-2.2974-0.57653-3.7749-0.59472zm-53.244 10.614c-0.28495-8e-3 -0.80529 0.21828-1.2612 0.37939 0.0447 1.0136 0.11574 2.0253 0.21826 3.0352 2.4862-2.3926 2.681-3.3697 1.043-3.4146zm195.99 9.0176h1e-3c1.9403 0.24873 3.521 5.9736 5.4829 19.419 2.7194 18.636 1.1646 18.91-39.29 6.7778-20.024-6.0048-37.449-10.571-38.719-10.148-1.2695 0.4231 13.972 5.5237 33.864 11.335 19.892 5.8112 37.267 11.164 38.613 11.902 1.3471 0.73754 0.19595 2.9891-2.5576 5.0024-2.7536 2.0135-6.9138 3.5948-9.2432 3.5127-5.58-0.19683-63.75-28.977-64.774-32.048-0.43612-1.3086 15.971-5.0571 36.464-8.3247 20.494-3.2676 38.183-6.5072 39.305-7.2012 0.29334-0.18128 0.57613-0.26141 0.85254-0.22705zm-84.088 18.593c0.50529-0.50529 15.832 6.4974 34.055 15.561 24.552 12.211 31.83 16.934 28.106 18.253-2.7638 0.97914-12.362 4.8026-21.328 8.4946-25.539 10.515-28.523 11.502-28.572 9.3999-0.0241-1.0838-3.0034-12.955-6.6138-26.38-3.6105-13.425-6.1524-24.823-5.647-25.329zm83.896 27.836c4.767-0.25907 10.36 4.0298 8.3599 7.2656-0.81888 1.325-0.18965 2.4097 1.3931 2.4097 1.5825 0 2.8755-1.2273 2.8755-2.7217 0-5.7244 7.4641-2.2857 17.612 8.1064 5.8102 5.9502 10.034 11.304 9.3838 11.9-1.5719 1.4401-45.965-20.866-45.99-23.109-0.01-0.96091 1.9637-2.5154 4.3945-3.4482 0.62238-0.23881 1.2907-0.36569 1.9717-0.40283zm-197.29 2.6225c-0.65756-0.65751-3.2938 11.971-5.8579 28.062-2.5643 16.091-5.2532 31.696-5.9722 34.685-1.002 4.1653-0.73506 4.488 1.1455 1.3638 2.8577-4.7472 12.455-62.331 10.685-64.11zm121.05 25.992c-0.58442 0.0722-1.7347 0.36874-3.4951 0.90381-6.4315 1.9542-99.67 39.117-108.44 43.175h5.2354c8.4432-2.8563 23.345-8.5927 47.764-18.404 39.144-15.728 63.003-26.169 58.939-25.674z" style="fill:#4aaee6;opacity:.33564;stroke-opacity:.37741;stroke-width:2.717;stroke:#439dcf"/></g><path d="m150.75 95.5c-40.695 0.0038-73.684 27.998-73.684 62.533 0.02791 4.9319 0.74098 9.8444 2.1274 14.633-0.69716-0.0478-1.3983-0.0837-2.0995-0.10757-31.83 0-57.637 25.808-57.637 57.637 0 31.834 25.808 57.641 57.637 57.641h229.79c31.83 0 57.637-25.808 57.637-57.641 0-31.83-25.808-57.637-57.637-57.637-1.3624 0-2.7209 0.0519-4.0793 0.1474 1.8365-5.3343 2.7807-10.936 2.7966-16.576 0-28.404-23.026-51.435-51.435-51.439-16.05 0.0279-31.173 7.5453-40.882 20.329-13.438-18.341-37.077-29.504-62.53-29.52z" fill="url(#a)" fill-rule="evenodd" stroke="#80c6ed" stroke-linejoin="round" stroke-opacity=".47059" stroke-width="7.4189" style="fill:#000;filter:url(#d);opacity:.3;paint-order:stroke fill markers"/><path d="m150.75 95.5c-40.695 0.0038-73.684 27.998-73.684 62.533 0.02791 4.9319 0.74098 9.8444 2.1274 14.633-0.69716-0.0478-1.3983-0.0837-2.0995-0.10757-31.83 0-57.637 25.808-57.637 57.637 0 31.834 25.808 57.641 57.637 57.641h229.79c31.83 0 57.637-25.808 57.637-57.641 0-31.83-25.808-57.637-57.637-57.637-1.3624 0-2.7209 0.0519-4.0793 0.1474 1.8365-5.3343 2.7807-10.936 2.7966-16.576 0-28.404-23.026-51.435-51.435-51.439-16.05 0.0279-31.173 7.5453-40.882 20.329-13.438-18.341-37.077-29.504-62.53-29.52z" fill="url(#a)" fill-rule="evenodd" stroke="#80c6ed" stroke-linejoin="round" stroke-opacity=".47059" stroke-width="7.4189" style="fill:url(#b);paint-order:stroke fill markers"/><path d="m146.93 113.42c-8.6664 0-9.7021 10.616-1.251 12.826 5.2117 1.3629 15.256 16.005 14.035 20.459-0.30731 1.1208 0.48226 2.0347 1.7534 2.0347 3.2024 0 19.779 27.118 18.168 29.723-1.5389 2.4902-20.486 4.5553-76.182 8.3027-22.416 1.5082-45.647 3.4073-51.624 4.2202-10.698 1.4549-10.784 1.4046-5.209-3.3999 3.1148-2.6845 9.7419-7.9386 14.72-11.675 0.89052-0.66831 1.3658-1.0554 2.1841-1.6743-2.8814 0.69704-5.692 1.5687-8.3862 2.6807 0.63475 1.5368-0.070903 1.8269-2.3159 1.0606-1.3412 0.62477-2.6665 1.274-3.9492 1.9966-0.77856 1.8057-3.347 4.5191-6.7764 6.9609-2.2352 1.5916-4.2896 2.737-6.7676 3.624-3.4845 3.6707-6.525 7.7673-8.9531 12.255 10.097-7.0664 14.655-7.7561 31.857-9.2197l22.705-1.9351-1.4912 11.829-1.4897 11.823 2.9106-11.37c3.3246-12.977 3.5356-13.048 47.045-15.822 13.449-0.85733 30.41-2.2508 37.688-3.1025 2.0269-0.23735 3.8456-0.39194 5.4199-0.45996l-0.00586-0.00147c4.7232-0.20407 7.2677 0.34421 6.8057 1.5615-0.85058 2.2409-25.316 24.986-73.913 68.725-29.489 26.542-35.579 32.448-33.483 32.458 1.2594 0.00499 15.988-12.519 32.735-27.836 56.669-51.835 75.809-68.609 79.232-69.438 4.3549-1.0566 5.2583 1.9412 28.472 94.061 0.33169 1.3162 0.61846 2.5119 0.92285 3.7544h3.082c-3.307-12.845-6.9787-27.155-8.0186-30.913l-3.52-12.719 12.551-5.2368c45.669-19.053 42.443-18.308 54.911-12.686l11.307 5.0947-1.6611 17.78c-4.0025 42.876-3.8186 50.46 0.44531 18.176l4.6143-34.917 21.596 11.174c11.877 6.147 22.27 12.222 23.095 13.497 1.4874 2.2997 7.5391 9.027 14.502 16.551 0.59346-0.5169 1.1758-1.046 1.7476-1.5864-0.62189-0.58988-1.2366-1.234-1.8545-1.812-4.8615-4.5481-8.4177-8.6917-7.9014-9.208 0.29739-0.2974 6.4165 2.2467 14.638 5.8784 0.88539-1.0704 1.6945-2.2036 2.502-3.3369-22.225-11.512-31.009-17.735-42.898-29.849-9.2308-9.4038-16-17.879-15.045-18.834 0.95401-0.95396 19.962 1.7318 42.246 5.9648l26.222 4.9819c-0.06218-0.83078-0.16223-1.6491-0.25928-2.4697-1.7349-0.40504-2.96-0.60054-5.2266-1.1997-4.483-1.1851-19.72-4.2889-33.857-6.9038-28.957-5.356-38.726-12.002-42.091-28.622-1.0432-5.1563-2.4674-11.422-3.167-13.922-1.0457-3.7358 1.5285-4.868 14.467-6.3809 3.1897-0.37289 6.9529-0.93164 10.608-1.4707 0.20853-1.1878 0.35743-2.3845 0.48193-3.5845-0.26091 0.04647-0.35391 0.06548-0.61962 0.11279-24.889 4.4316-28.699 3.6593-28.699-5.7817 0-4.9751 1.4493-6.876 5.2295-6.876 4.8911 0 4.9686-0.52071 1.188-8.0991-2.2216-4.4533-5.2024-8.8077-6.6152-9.6812-4.0535-2.5051-13.384 1.4457-13.384 5.6675 0 2.8004-2.1863 3.3924-8.1548 2.1987-5.1925-1.0385-8.1489-0.52047-8.1489 1.4268 0 1.6812 3.361 3.0844 7.4707 3.1172 9.6086 0.0777 19.03 7.6058 20.168 16.119 0.87436 6.5418 0.18318 6.7913-35.786 12.946-50.521 8.6454-50.612 8.6212-69.101-20.678-8.4931-13.46-15.13-27.129-15.13-31.157 0-5.8449-1.2596-7.1807-6.791-7.1807l0.00147-0.00293zm14.94 8.502c-1.2312 0-2.4586 0.18874-3.3926 0.56543-1.868 0.75374-0.34351 1.3711 3.3926 1.3711 3.7358 0 5.2664-0.61735 3.3984-1.3711-0.93394-0.37678-2.1673-0.56543-3.3984-0.56543zm-26.786 3.5317c-4e-5 1.2e-4 -0.0029 0.00135-0.00293 0.00147-2.3e-4 8.2e-4 0.00614-8.5e-4 0.00586 0l-0.00293-0.00147zm-0.00293 0.00147c0.01468-0.05412-0.10769-0.04709-0.38379 0.03369-7.289 2.1511-47.434 18.439-51.624 20.946-0.74124 0.44351-3.6303 1.8178-5.2397 2.6572-0.30723 1.8196-0.53048 3.6616-0.64893 5.5283 1.5717 0.22551 2.6427 1.4443 4.4033 3.7998 2.4874 3.3277 3.5106 9.261 2.7773 16.134l-1.1587 10.869 2.7349-11.172c3.9703-16.202 9.4191-17.631 37.604-9.8306 12.858 3.5587 29.929 8.286 37.934 10.501 8.0061 2.2154 15.078 3.5081 15.71 2.8755 0.63271-0.63271-15.583-5.8678-36.034-11.638-33.855-9.5528-44.495-14.281-44.495-19.759 0-1.0727 9.4712-6.4825 21.053-12.028 10.131-4.8506 17.244-8.5174 17.367-8.9165zm165.96 22.14c-1.9486-0.1346-3.3208 0.38468-3.3208 1.4004 0 1.3545 2.4457 2.4653 5.4346 2.4653 0.85901 0 1.4819-0.10794 2.206-0.17725-0.08549-0.91312-0.238-1.804-0.3706-2.7026-0.62657-0.21216-1.1207-0.4386-1.8354-0.62549-0.74714-0.19538-1.4642-0.31549-2.1138-0.36035zm-169.38 1.4912c-1.4774-0.0193-3.0582 0.14343-4.3799 0.48779-2.6436 0.68886-1.1345 1.301 3.3486 1.3564 4.483 0.0555 6.6457-0.50528 4.8062-1.2495-0.91975-0.37196-2.2974-0.57653-3.7749-0.59472zm-53.244 10.614c-0.28495-0.0078-0.80529 0.21828-1.2612 0.37939 0.044703 1.0136 0.11574 2.0253 0.21826 3.0352 2.4862-2.3926 2.681-3.3697 1.043-3.4146zm195.99 9.0176h0.00146c1.9403 0.24873 3.521 5.9736 5.4829 19.419 2.7194 18.636 1.1646 18.91-39.29 6.7778-20.024-6.0048-37.449-10.571-38.719-10.148-1.2695 0.4231 13.972 5.5237 33.864 11.335 19.892 5.8112 37.267 11.164 38.613 11.902 1.3471 0.73754 0.19595 2.9891-2.5576 5.0024-2.7536 2.0135-6.9138 3.5948-9.2432 3.5127-5.58-0.19683-63.75-28.977-64.774-32.048-0.43612-1.3086 15.971-5.0571 36.464-8.3247 20.494-3.2676 38.183-6.5072 39.305-7.2012 0.29334-0.18128 0.57613-0.26141 0.85254-0.22705zm-84.088 18.593c0.50529-0.50529 15.832 6.4974 34.055 15.561 24.552 12.211 31.83 16.934 28.106 18.253-2.7638 0.97914-12.362 4.8026-21.328 8.4946-25.539 10.515-28.523 11.502-28.572 9.3999-0.0241-1.0838-3.0034-12.955-6.6138-26.38-3.6105-13.425-6.1524-24.823-5.647-25.329zm83.896 27.836c4.767-0.25907 10.36 4.0298 8.3599 7.2656-0.81888 1.325-0.18965 2.4097 1.3931 2.4097 1.5825 0 2.8755-1.2273 2.8755-2.7217 0-5.7244 7.4641-2.2857 17.612 8.1064 5.8102 5.9502 10.034 11.304 9.3838 11.9-1.5719 1.4401-45.965-20.866-45.99-23.109-0.01-0.96091 1.9637-2.5154 4.3945-3.4482 0.62238-0.23881 1.2907-0.36569 1.9717-0.40283zm-197.29 2.6221c-0.65756-0.65751-3.2938 11.971-5.8579 28.062-2.5643 16.091-5.2532 31.696-5.9722 34.685-1.002 4.1653-0.73506 4.488 1.1455 1.3638 2.8577-4.7472 12.455-62.331 10.685-64.11zm121.05 25.992c-0.58442 0.0722-1.7347 0.36874-3.4951 0.90381-6.4315 1.9542-99.67 39.117-108.44 43.175h5.2354c8.4432-2.8563 23.345-8.5927 47.764-18.404 39.144-15.728 63.003-26.169 58.939-25.674h-0.00293z" style="fill:#4aaee6;opacity:.33564;stroke-opacity:.37741;stroke-width:2.717;stroke:#439dcf"/><path d="m167.77 140.42s-25.161-1.6742-68.007 11.733c-43.664 13.663-68.429 33.028-68.429 33.028s65.08-36.337 138.54-38.402zm93.848 39.508 3.271-0.21353s-18.741-22.738-54.611-33.814c20.164 8.1965 37.714 19.057 51.339 34.026zm5.3532 9.4474c0.50292-0.87198 2.1264 2.7701 3.3592 4.3001 0.0522 0.30552 0.13896 0.49199-0.57585 0.34491-0.0601-0.31406-0.16393-0.40516-0.16393-0.40516s-1.7254-1.0266-2.2544-1.7548c-0.52943-0.72822-0.62335-2.002-0.36527-2.485zm44.022 108.24s3.9784-45.675-67.783-56.205c-9.0953-1.3345-20.598-2.3616-32.232-2.391-57.516 0.76048-59.613-66.337-16.272-69.725 17.962-1.482 39.409 8.2073 60.377 17.972-0.0778 2.6041 0.0296 4.9181 1.7406 7.0565 1.7102 2.1377 8.2802 4.4699 10.38 5.6745 2.0993 1.205 8.8245 5.4808 12.946 10.845 0.89379-1.6718 8.3576-6.5302 8.3576-6.5302s-1.788 0.0391-5.9477-1.5157c-4.1602-1.5546-9.0968-6.2584-9.2136-6.5302-0.11662-0.27234-0.19415-0.69977 0.77805-0.89425 0.73817-0.62148-0.93363-2.643-1.6723-3.3812-0.73817-0.73867-5.6757-9.1342-5.792-9.3289-0.11663-0.19448-0.15572-0.38857-0.50526-0.62194-1.0888-0.35013-5.8704 0.50522-5.8704 0.50522s-7.3538-3.6118-9.8887-11.399c0.0371 1.364-1.261 2.8531 0 5.9867-3.8343-1.622-7.1277-4.3884-9.7254-11.225-1.5461 3.8882 0 6.3604 0 6.3604s-9.029-2.523-10.474-10.85c-1.5855 3.7379 0 5.9862 0 5.9862s-14.72-7.6803-39.178-7.7917c-16.375-1.502-19.784-30.308-18.267-35.157 0 0-23.618-12.448-70.111-17.947-46.493-5.4998-84.623-0.8288-84.623-0.8288s82.344-3.9518 148.31 22.755c2.2425 10.03 8.9886 26.735 12.622 34.765-10.397 7.1883-22.121 13.948-23.946 37.921-1.8251 23.973 18.786 45.059 44.344 45.709 24.269 1.2928 41.038 1.4764 61.362 12.014 19.4 10.727 35.307 43.413 36.881 72.809 1.7002-21.811-6.4849-68.714-44.68-82.955 53.384 9.3422 58.08 48.917 58.08 48.917zm-144.48-160.77-1.9209-6.1959s-31.695-5.6284-74.31-2.5994-85.641 17.946-85.641 17.946 88.038-22.152 161.87-9.1515" style="filter:url(#e);opacity:.3;paint-order:stroke fill markers;stroke-width:2.4638"/><path d="m167.77 140.42s-25.161-1.6742-68.007 11.733c-43.664 13.663-68.429 33.028-68.429 33.028s65.08-36.337 138.54-38.402zm93.848 39.508 3.271-0.21353s-18.741-22.738-54.611-33.814c20.164 8.1965 37.714 19.057 51.339 34.026zm5.3532 9.4474c0.50292-0.87198 2.1264 2.7701 3.3592 4.3001 0.0522 0.30552 0.13896 0.49199-0.57585 0.34491-0.0601-0.31406-0.16393-0.40516-0.16393-0.40516s-1.7254-1.0266-2.2544-1.7548c-0.52943-0.72822-0.62335-2.002-0.36527-2.485zm44.022 108.24s3.9784-45.675-67.783-56.205c-9.0953-1.3345-20.598-2.3616-32.232-2.391-57.516 0.76048-59.613-66.337-16.272-69.725 17.962-1.482 39.409 8.2073 60.377 17.972-0.0778 2.6041 0.0296 4.9181 1.7406 7.0565 1.7102 2.1377 8.2802 4.4699 10.38 5.6745 2.0993 1.205 8.8245 5.4808 12.946 10.845 0.89379-1.6718 8.3576-6.5302 8.3576-6.5302s-1.788 0.0391-5.9477-1.5157c-4.1602-1.5546-9.0968-6.2584-9.2136-6.5302-0.11662-0.27234-0.19415-0.69977 0.77805-0.89425 0.73817-0.62148-0.93363-2.643-1.6723-3.3812-0.73817-0.73867-5.6757-9.1342-5.792-9.3289-0.11663-0.19448-0.15572-0.38857-0.50526-0.62194-1.0888-0.35013-5.8704 0.50522-5.8704 0.50522s-7.3538-3.6118-9.8887-11.399c0.0371 1.364-1.261 2.8531 0 5.9867-3.8343-1.622-7.1277-4.3884-9.7254-11.225-1.5461 3.8882 0 6.3604 0 6.3604s-9.029-2.523-10.474-10.85c-1.5855 3.7379 0 5.9862 0 5.9862s-14.72-7.6803-39.178-7.7917c-16.375-1.502-19.784-30.308-18.267-35.157 0 0-23.618-12.448-70.111-17.947-46.493-5.4998-84.623-0.8288-84.623-0.8288s82.344-3.9518 148.31 22.755c2.2425 10.03 8.9886 26.735 12.622 34.765-10.397 7.1883-22.121 13.948-23.946 37.921-1.8251 23.973 18.786 45.059 44.344 45.709 24.269 1.2928 41.038 1.4764 61.362 12.014 19.4 10.727 35.307 43.413 36.881 72.809 1.7002-21.811-6.4849-68.714-44.68-82.955 53.384 9.3422 58.08 48.917 58.08 48.917zm-144.48-160.77-1.9209-6.1959s-31.695-5.6284-74.31-2.5994-85.641 17.946-85.641 17.946 88.038-22.152 161.87-9.1515" style="paint-order:stroke fill markers;stroke-width:2.4638"/><g transform="matrix(3.1532 0 0 3.1532 -136.28 -114.48)"><g transform="matrix(1,0,0,-1,0,243.94)"><rect x="134.86" y="120.58" width="4.3781" height="2.7903" rx=".62798" fill="#ccc" stroke-width=".19664"/><path transform="matrix(.20255 0 0 .20255 192.53 100.82)" d="m-281.87 97.314c-1.7692 0-3.1934 1.4242-3.1934 3.1934v7.8027c0 1.7692 1.4242 3.1953 3.1934 3.1953h15.877c1.7692 0 3.1934-1.4261 3.1934-3.1953v-7.8027c0-1.7692-1.4242-3.1934-3.1934-3.1934zm1.4023 1.2539h13.07c1.4565 0 2.6289 1.1724 2.6289 2.6289v6.4238c0 1.4565-1.1724 2.6289-2.6289 2.6289h-13.07c-1.4565 0-2.6289-1.1724-2.6289-2.6289v-6.4238c0-1.4565 1.1724-2.6289 2.6289-2.6289z" filter="url(#l)" opacity=".50924"/><rect x="141.18" y="120.58" width="4.3781" height="2.7903" rx=".62798" fill="#ccc" stroke-width=".19664"/><path transform="matrix(.20255 0 0 .20255 198.85 100.82)" d="m-281.87 97.314c-1.7692 0-3.1934 1.4242-3.1934 3.1934v7.8027c0 1.7692 1.4242 3.1953 3.1934 3.1953h15.877c1.7692 0 3.1934-1.4261 3.1934-3.1953v-7.8027c0-1.7692-1.4242-3.1934-3.1934-3.1934zm1.4023 1.2539h13.07c1.4565 0 2.6289 1.1724 2.6289 2.6289v6.4238c0 1.4565-1.1724 2.6289-2.6289 2.6289h-13.07c-1.4565 0-2.6289-1.1724-2.6289-2.6289v-6.4238c0-1.4565 1.1724-2.6289 2.6289-2.6289z" filter="url(#l)" opacity=".50924"/><rect x="147.35" y="120.58" width="4.3781" height="2.7903" rx=".62798" fill="#ccc" stroke-width=".19664"/><path transform="matrix(.20255 0 0 .20255 205.02 100.82)" d="m-281.87 97.314c-1.7692 0-3.1934 1.4242-3.1934 3.1934v7.8027c0 1.7692 1.4242 3.1953 3.1934 3.1953h15.877c1.7692 0 3.1934-1.4261 3.1934-3.1953v-7.8027c0-1.7692-1.4242-3.1934-3.1934-3.1934zm1.4023 1.2539h13.07c1.4565 0 2.6289 1.1724 2.6289 2.6289v6.4238c0 1.4565-1.1724 2.6289-2.6289 2.6289h-13.07c-1.4565 0-2.6289-1.1724-2.6289-2.6289v-6.4238c0-1.4565 1.1724-2.6289 2.6289-2.6289z" filter="url(#l)" opacity=".50924"/><rect x="153.52" y="120.58" width="4.3781" height="2.7903" rx=".62798" fill="#ccc" stroke-width=".19664"/><path transform="matrix(.20255 0 0 .20255 211.2 100.82)" d="m-281.87 97.314c-1.7692 0-3.1934 1.4242-3.1934 3.1934v7.8027c0 1.7692 1.4242 3.1953 3.1934 3.1953h15.877c1.7692 0 3.1934-1.4261 3.1934-3.1953v-7.8027c0-1.7692-1.4242-3.1934-3.1934-3.1934zm1.4023 1.2539h13.07c1.4565 0 2.6289 1.1724 2.6289 2.6289v6.4238c0 1.4565-1.1724 2.6289-2.6289 2.6289h-13.07c-1.4565 0-2.6289-1.1724-2.6289-2.6289v-6.4238c0-1.4565 1.1724-2.6289 2.6289-2.6289z" filter="url(#l)" opacity=".50924"/></g><path d="m134.26 121.96h24.145c2.6629 0 4.7233 2.1451 4.8066 4.8066l0.77497 24.733c0.0834 2.6616-1.9876 5.4314-4.6505 5.4314h-26.008c-2.6629 0-4.734-2.7698-4.6505-5.4314l0.77497-24.733c0.0834-2.6616 2.1437-4.8066 4.8066-4.8066z" fill="#272a34" stroke-width=".08208" style="fill-opacity:.99608"/><path d="m134.51 121.96h23.649c2.6082 0 4.6262 2.0528 4.7081 4.5997l0.75905 23.668c0.0817 2.5471-1.9468 5.1976-4.5551 5.1976h-25.473c-2.6082 0-4.6367-2.6505-4.5551-5.1976l0.75905-23.668c0.0817-2.5471 2.0997-4.5997 4.7081-4.5997z" fill="#4c4f5c" stroke-width=".079466" style="fill-opacity:.99608"/><path d="m134.35 121.96h23.976c2.4932 0 4.4665 2.0074 4.5004 4.5004l0.3149 23.158c0.0339 2.493-1.861 5.0854-4.3542 5.0854h-24.899c-2.4932 0-4.3881-2.5923-4.3542-5.0854l0.3149-23.158c0.0339-2.493 2.0072-4.5004 4.5004-4.5004z" fill="#272a34" stroke-width=".076851" style="fill-opacity:.99608"/><path d="m134.93 121.96h22.808c2.3717 0 4.2352 1.9099 4.2812 4.2812l0.43865 22.586c0.046 2.3713-1.9094 4.2812-4.2812 4.2812h-23.686c-2.3717 0-4.3273-1.9099-4.2812-4.2812l0.43865-22.586c0.046-2.3713 1.9094-4.2812 4.2812-4.2812z" fill="url(#j)" opacity=".1" stroke-width=".073109" style="fill:url(#j)"/><circle cx="137.08" cy="128.15" r="3.1111" fill="url(#i)" opacity=".5" stroke-width=".073109" style="fill:url(#i)"/><path transform="matrix(.073109 0 0 .073109 6.5293 125.5)" d="m2132.8 313.54c-1.7762 30.333-27.515 54.096-58.453 54.096h-323.98c-30.929 0-56.664-23.749-58.453-54.07l-0.1074 5.5098c-0.63 32.436 26.118 58.561 58.56 58.561h323.98c32.442 1e-5 59.19-26.124 58.56-58.561z" fill="#fff" filter="url(#f)" opacity=".1"/><path transform="matrix(.097478 0 0 .097478 83.5 121.42)" d="m467.34 297.32-0.086 2.7129c-0.8381 26.129 19.971 53.32 46.728 53.32h261.33c26.757 0 47.566-27.191 46.728-53.32l-0.086-2.7129c-1.6377 24.559-21.517 48.533-46.642 48.533h-261.33c-25.125 0-45.004-23.975-46.642-48.533z" fill="#4c4f5c" fill-opacity=".99608" filter="url(#g)" stroke-width=".81522"/><path transform="matrix(.073109 0 0 .073109 6.5293 125.65)" d="m1670.9 354.42-0.037 1.2129c-1.1406 36.406 27.188 74.291 63.611 74.291h355.74c36.424 0 64.752-37.885 63.611-74.291l-0.037-1.2129c-1.3377 34.864-28.745 69.504-63.574 69.504h-355.74c-34.829 0-62.237-34.64-63.574-69.504z" fill-opacity=".99608" filter="url(#h)" stroke-width="1.1227"/><path d="m136.85 142.05c-1.282-0.27492-2.1612-1.1753-2.5393-2.6004-0.0835-0.31467-0.0955-0.43731-0.0974-0.99606-2e-3 -0.52451 0.0119-0.69801 0.078-0.98101 0.30576-1.3107 1.1711-2.2313 2.4149-2.5687 0.25996-0.0706 0.40384-0.0844 0.856-0.0826 0.48532 2e-3 0.57559 0.0129 0.84338 0.1021 0.39403 0.1313 0.63706 0.27535 0.93563 0.55466l0.24508 0.22925v-0.72077h1.6493v6.9344h-1.6493v-0.69062l-0.17803 0.17288c-0.33152 0.3219-0.83609 0.57983-1.3 0.66453-0.30266 0.0553-0.96135 0.046-1.2582-0.0176zm1.404-1.461c0.63336-0.16497 1.1194-0.63735 1.3359-1.2984 0.0788-0.24067 0.0897-0.34196 0.0877-0.81817-2e-3 -0.48592-0.0128-0.57527-0.10249-0.84337-0.27663-0.82755-0.96243-1.3327-1.8054-1.3297-0.52486 2e-3 -0.8897 0.15365-1.2572 0.52321-0.78848 0.79294-0.84597 2.2607-0.12409 3.1687 0.42278 0.53171 1.1835 0.77552 1.8655 0.59789zm4.8557-2.1353v-3.4672h1.6492v0.56888l0.24855-0.22772c0.28293-0.25929 0.59347-0.42852 0.90519-0.49335 0.30704-0.0638 1.019-0.0254 1.2859 0.0695 0.17632 0.0627 0.43555 0.17926 0.47658 0.21432 0.01 8e-3 -0.6223 1.4382-0.65176 1.4746-6e-3 7e-3 -0.10878-0.0349-0.22864-0.0937-0.1995-0.0979-0.25273-0.10693-0.63023-0.10693-0.375 0-0.43152 9e-3 -0.62449 0.1042-0.24529 0.12045-0.43747 0.31791-0.57655 0.59236-0.19301 0.38091-0.20322 0.51906-0.20392 2.7614v2.0709h-1.6492zm5.5476 0v-3.4672h1.6492v0.59485l0.21089-0.20102c0.22529-0.21474 0.50523-0.379 0.83863-0.49207 0.15401-0.0523 0.31522-0.0699 0.63723-0.0699 0.45686 0 0.64886 0.0436 1.0276 0.23333 0.17586 0.0881 0.64873 0.5183 0.7212 0.65614 0.0296 0.0563 0.0731 0.0275 0.31413-0.20892 0.45144-0.44258 0.93385-0.64566 1.6292-0.6858 1.1448-0.0661 2.0641 0.57987 2.3538 1.654 0.12088 0.44802 0.13873 0.85423 0.13873 3.1569v2.2969h-1.6492v-2.1338c0-1.2672-0.0159-2.2529-0.039-2.427-0.051-0.38269-0.21521-0.72826-0.41489-0.8729-0.51603-0.3738-1.3096-0.13912-1.6234 0.48007-0.19526 0.38534-0.20915 0.57473-0.20915 2.8531v2.1007h-1.6492l-1e-3 -2.0147c-1e-3 -2.608-0.0332-2.9281-0.32637-3.2704-0.46073-0.53828-1.3606-0.39047-1.7406 0.28593-0.21865 0.38912-0.22823 0.50051-0.24579 2.8535l-0.016 2.146h-1.6059z" fill="#b3b3b3" stroke-width=".037483" style="fill:#e7e7e7"/><text x="144.07089" y="129.17302" fill="#666666" font-family="sans-serif" font-size="2.9244px" stroke-width=".073109"><tspan x="144.07089" y="129.17302" fill="#666666" font-family="'FiraCode Nerd Font'" font-weight="bold" stroke-width=".073109">00350179</tspan></text><path d="m135.18 143.71h22.993v1.4422h-22.993z" fill="#b3b3b3" stroke-width=".073744" style="fill:#e7e7e7"/><path transform="matrix(.15421 0 0 .15421 106.86 100.46)" d="m263.97 225.71c-1.153 2.6781-3.4136 7.7574-3.5547 7.9316-0.0387 0.0471-0.70517-0.22602-1.4824-0.60742-1.2938-0.63482-1.638-0.69336-4.0859-0.69336-2.4317 0-2.7994 0.0613-4.0508 0.67578-1.5907 0.78114-2.8364 2.0602-3.7383 3.8398-1.2516 2.47-1.3183 3.3662-1.3223 17.906v2c5e-3 -14.54 0.0707-15.436 1.3223-17.906 0.90192-1.7797 2.1476-3.0587 3.7383-3.8398 1.2513-0.61448 1.619-0.67578 4.0508-0.67578 2.448 0 2.7922 0.0585 4.0859 0.69336 0.77725 0.38139 1.4438 0.65449 1.4824 0.60742 0.19108-0.23586 4.29-9.5086 4.2266-9.5625-0.0868-0.0742-0.35207-0.21295-0.67187-0.36914zm-63.561 6.0274c-3.4036 0.012-5.7694 0.99806-8.1523 3.3945-2.9364 2.953-4.3006 7.349-4.0508 11.672 0.21123-3.6441 1.5677-7.1747 4.0508-9.6719 2.3829-2.3965 4.7487-3.3825 8.1523-3.3945 5.4664-0.019 9.9132 3.2567 11.707 8.623 0.53616 1.6028 0.63318 2.309 0.65625 4.8652 5e-3 -0.42157 0.0102-0.83147 8e-3 -1.3945-0.0136-3.151-0.0825-3.7322-0.66407-5.4707-1.7939-5.3664-6.2406-8.642-11.707-8.623zm115.19 0.0586c-2.7443-0.0685-5.6128 1.5129-7.0117 4.2734-1.2663 2.4988-1.3555 3.7277-1.3555 18.502v2c0-14.774 0.0892-16.003 1.3555-18.502 2.0347-4.0154 7.1811-5.5373 10.527-3.1133 1.2949 0.93798 2.3609 3.1785 2.6914 5.6602 0.15049 1.1292 0.25195 7.5208 0.25195 15.738v-2c0-8.2175-0.10146-14.609-0.25195-15.738-0.33052-2.4816-1.3965-4.7222-2.6914-5.6602-1.0457-0.7575-2.2682-1.129-3.5156-1.1602zm-26.225 0.01c-2.4125 0.11619-4.8656 1.4995-6.252 3.9668-1.4179 2.5234-1.48 3.2462-1.5938 18.504l-0.10547 13.916h-10.412v2h10.412l0.10547-13.916c0.11377-15.258 0.17589-15.981 1.5938-18.504 2.4646-4.3863 8.2994-5.3441 11.287-1.8535 1.9008 2.2207 2.1065 4.2967 2.1172 21.209l0.01 13.064h10.695v-2h-10.695l-0.01-13.064c-0.0106-16.912-0.21641-18.988-2.1172-21.209-1.3072-1.5272-3.1588-2.2036-5.0352-2.1133zm-112.02 14.586c-4e-3 0.42156-0.01 0.80055-8e-3 1.3164 0.0126 3.6233 0.0915 4.4184 0.63281 6.459 2.4512 9.2409 8.1534 15.081 16.467 16.863 1.9248 0.41276 6.1956 0.47164 8.1582 0.11328 3.0088-0.54934 6.2798-2.2211 8.4297-4.3086l1.1562-1.1211v-2l-1.1562 1.1211c-2.1499 2.0875-5.4209 3.7593-8.4297 4.3086-1.9626 0.3583-6.2334 0.29948-8.1582-0.11328-8.3134-1.7828-14.016-7.6224-16.467-16.863-0.50021-1.8856-0.60234-2.8026-0.625-5.7754zm34.836 21.801v2h10.693v-2h-5.3477zm22.852 0v2h10.695v-2h-5.3476zm87.014 0v2h10.695v-2h-5.3477zm-138.42 20.986v2h149.11v-2z" filter="url(#C)" stroke-width=".24307"/><g transform="translate(0,34.031)"><rect x="134.86" y="120.58" width="4.3781" height="2.7903" rx=".62798" fill="#ccc" stroke-width=".19664"/><path transform="matrix(.20255 0 0 .20255 192.53 100.82)" d="m-281.87 97.314c-1.7692 0-3.1934 1.4242-3.1934 3.1934v7.8027c0 1.7692 1.4242 3.1953 3.1934 3.1953h15.877c1.7692 0 3.1934-1.4261 3.1934-3.1953v-7.8027c0-1.7692-1.4242-3.1934-3.1934-3.1934zm1.4023 1.2539h13.07c1.4565 0 2.6289 1.1724 2.6289 2.6289v6.4238c0 1.4565-1.1724 2.6289-2.6289 2.6289h-13.07c-1.4565 0-2.6289-1.1724-2.6289-2.6289v-6.4238c0-1.4565 1.1724-2.6289 2.6289-2.6289z" filter="url(#l)" opacity=".50924"/><rect x="141.18" y="120.58" width="4.3781" height="2.7903" rx=".62798" fill="#ccc" stroke-width=".19664"/><path transform="matrix(.20255 0 0 .20255 198.85 100.82)" d="m-281.87 97.314c-1.7692 0-3.1934 1.4242-3.1934 3.1934v7.8027c0 1.7692 1.4242 3.1953 3.1934 3.1953h15.877c1.7692 0 3.1934-1.4261 3.1934-3.1953v-7.8027c0-1.7692-1.4242-3.1934-3.1934-3.1934zm1.4023 1.2539h13.07c1.4565 0 2.6289 1.1724 2.6289 2.6289v6.4238c0 1.4565-1.1724 2.6289-2.6289 2.6289h-13.07c-1.4565 0-2.6289-1.1724-2.6289-2.6289v-6.4238c0-1.4565 1.1724-2.6289 2.6289-2.6289z" filter="url(#l)" opacity=".50924"/><rect x="147.35" y="120.58" width="4.3781" height="2.7903" rx=".62798" fill="#ccc" stroke-width=".19664"/><path transform="matrix(.20255 0 0 .20255 205.02 100.82)" d="m-281.87 97.314c-1.7692 0-3.1934 1.4242-3.1934 3.1934v7.8027c0 1.7692 1.4242 3.1953 3.1934 3.1953h15.877c1.7692 0 3.1934-1.4261 3.1934-3.1953v-7.8027c0-1.7692-1.4242-3.1934-3.1934-3.1934zm1.4023 1.2539h13.07c1.4565 0 2.6289 1.1724 2.6289 2.6289v6.4238c0 1.4565-1.1724 2.6289-2.6289 2.6289h-13.07c-1.4565 0-2.6289-1.1724-2.6289-2.6289v-6.4238c0-1.4565 1.1724-2.6289 2.6289-2.6289z" filter="url(#l)" opacity=".50924"/><rect x="153.52" y="120.58" width="4.3781" height="2.7903" rx=".62798" fill="#ccc" stroke-width=".19664"/><path transform="matrix(.20255 0 0 .20255 211.2 100.82)" d="m-281.87 97.314c-1.7692 0-3.1934 1.4242-3.1934 3.1934v7.8027c0 1.7692 1.4242 3.1953 3.1934 3.1953h15.877c1.7692 0 3.1934-1.4261 3.1934-3.1953v-7.8027c0-1.7692-1.4242-3.1934-3.1934-3.1934zm1.4023 1.2539h13.07c1.4565 0 2.6289 1.1724 2.6289 2.6289v6.4238c0 1.4565-1.1724 2.6289-2.6289 2.6289h-13.07c-1.4565 0-2.6289-1.1724-2.6289-2.6289v-6.4238c0-1.4565 1.1724-2.6289 2.6289-2.6289z" filter="url(#l)" opacity=".50924"/><rect x="134.86" y="120.58" width="4.3781" height="2.7903" rx=".62798" fill="#ccc" stroke-width=".19664"/><path transform="matrix(.20255 0 0 .20255 192.53 100.82)" d="m-281.87 97.314c-1.7692 0-3.1934 1.4242-3.1934 3.1934v7.8027c0 1.7692 1.4242 3.1953 3.1934 3.1953h15.877c1.7692 0 3.1934-1.4261 3.1934-3.1953v-7.8027c0-1.7692-1.4242-3.1934-3.1934-3.1934zm1.4023 1.2539h13.07c1.4565 0 2.6289 1.1724 2.6289 2.6289v6.4238c0 1.4565-1.1724 2.6289-2.6289 2.6289h-13.07c-1.4565 0-2.6289-1.1724-2.6289-2.6289v-6.4238c0-1.4565 1.1724-2.6289 2.6289-2.6289z" filter="url(#l)" opacity=".50924"/><rect x="141.18" y="120.58" width="4.3781" height="2.7903" rx=".62798" fill="#ccc" stroke-width=".19664"/><path transform="matrix(.20255 0 0 .20255 198.85 100.82)" d="m-281.87 97.314c-1.7692 0-3.1934 1.4242-3.1934 3.1934v7.8027c0 1.7692 1.4242 3.1953 3.1934 3.1953h15.877c1.7692 0 3.1934-1.4261 3.1934-3.1953v-7.8027c0-1.7692-1.4242-3.1934-3.1934-3.1934zm1.4023 1.2539h13.07c1.4565 0 2.6289 1.1724 2.6289 2.6289v6.4238c0 1.4565-1.1724 2.6289-2.6289 2.6289h-13.07c-1.4565 0-2.6289-1.1724-2.6289-2.6289v-6.4238c0-1.4565 1.1724-2.6289 2.6289-2.6289z" filter="url(#l)" opacity=".50924"/><rect x="147.35" y="120.58" width="4.3781" height="2.7903" rx=".62798" fill="#ccc" stroke-width=".19664"/><path transform="matrix(.20255 0 0 .20255 205.02 100.82)" d="m-281.87 97.314c-1.7692 0-3.1934 1.4242-3.1934 3.1934v7.8027c0 1.7692 1.4242 3.1953 3.1934 3.1953h15.877c1.7692 0 3.1934-1.4261 3.1934-3.1953v-7.8027c0-1.7692-1.4242-3.1934-3.1934-3.1934zm1.4023 1.2539h13.07c1.4565 0 2.6289 1.1724 2.6289 2.6289v6.4238c0 1.4565-1.1724 2.6289-2.6289 2.6289h-13.07c-1.4565 0-2.6289-1.1724-2.6289-2.6289v-6.4238c0-1.4565 1.1724-2.6289 2.6289-2.6289z" filter="url(#l)" opacity=".50924"/><rect x="153.52" y="120.58" width="4.3781" height="2.7903" rx=".62798" fill="#ccc" stroke-width=".19664"/><path transform="matrix(.20255 0 0 .20255 211.2 100.82)" d="m-281.87 97.314c-1.7692 0-3.1934 1.4242-3.1934 3.1934v7.8027c0 1.7692 1.4242 3.1953 3.1934 3.1953h15.877c1.7692 0 3.1934-1.4261 3.1934-3.1953v-7.8027c0-1.7692-1.4242-3.1934-3.1934-3.1934zm1.4023 1.2539h13.07c1.4565 0 2.6289 1.1724 2.6289 2.6289v6.4238c0 1.4565-1.1724 2.6289-2.6289 2.6289h-13.07c-1.4565 0-2.6289-1.1724-2.6289-2.6289v-6.4238c0-1.4565 1.1724-2.6289 2.6289-2.6289z" filter="url(#l)" opacity=".50924"/></g></g></svg>
