<svg xmlns="http://www.w3.org/2000/svg" xmlns:xlink="http://www.w3.org/1999/xlink" viewBox="0,0,256,256" width="1600px" height="1600px"><g transform="translate(-34.56,-34.56) scale(1.27,1.27)"><g fill="none" fill-rule="nonzero" stroke="none" stroke-width="none" stroke-linecap="none" stroke-linejoin="miter" stroke-miterlimit="10" stroke-dasharray="" stroke-dashoffset="0" font-family="none" font-weight="none" font-size="none" text-anchor="none" style="mix-blend-mode: normal"><g transform="translate(-3.46667,-4) scale(5.33333,5.33333)"><path d="M15.879,44c-2.134,0 -3.879,-1.745 -3.879,-3.879v-24.242c0,-2.134 1.745,-3.879 3.879,-3.879h24.242c2.134,0 3.879,1.745 3.879,3.879v24.242c0,2.134 -1.745,3.879 -3.879,3.879z" fill="#ffe082" stroke="none" stroke-width="1" stroke-linecap="butt"></path><path d="M7.5,28.559v-17.059c0,-2.2 1.8,-4 4,-4h25c2.2,0 4,1.8 4,4v1.245" fill="none" stroke="#18193f" stroke-width="3" stroke-linecap="round"></path><path d="M40.5,18.617v17.883c0,2.2 -1.8,4 -4,4h-25c-2.2,0 -4,-1.8 -4,-4v-1.755" fill="none" stroke="#18193f" stroke-width="3" stroke-linecap="round"></path><path d="M29.271,32.389c0.629,1.026 1.312,2.009 2.758,2.009c1.215,0 1.853,-0.607 1.853,-1.446c0,-1.005 -0.659,-1.362 -1.996,-1.946l-0.733,-0.314c-2.115,-0.901 -3.522,-2.031 -3.522,-4.418c0,-2.199 1.675,-3.873 4.294,-3.873c1.864,0 3.204,0.649 4.17,2.348l-2.283,1.466c-0.503,-0.901 -1.045,-1.256 -1.887,-1.256c-0.859,0 -1.403,0.545 -1.403,1.256c0,0.88 0.545,1.236 1.803,1.78l0.733,0.314c2.492,1.067 3.898,2.156 3.898,4.605c0,2.64 -2.074,4.086 -4.859,4.086c-2.723,0 -4.27,-1.373 -5.131,-3.074z" fill="#18193f" stroke="none" stroke-width="1" stroke-linecap="butt"></path><path d="M18.623,32.464c0.466,0.827 1.176,1.462 2.195,1.462c0.975,0 1.537,-0.381 1.537,-1.864v-9.662h3.074v10.129c0,3.072 -1.801,4.471 -4.431,4.471c-2.376,0 -4.091,-1.593 -4.79,-3.074z" fill="#18193f" stroke="none" stroke-width="1" stroke-linecap="butt"></path></g></g></g></svg>